<svg width="16" height="16" viewBox="0 0 16 16" fill="none" xmlns="http://www.w3.org/2000/svg">
<path fill-rule="evenodd" clip-rule="evenodd" d="M7.24992 2.16671C4.44247 2.16671 2.16659 4.44259 2.16659 7.25004C2.16659 10.0575 4.44247 12.3334 7.24992 12.3334C8.65251 12.3334 9.92136 11.7662 10.8418 10.8471C11.7639 9.92625 12.3333 8.65526 12.3333 7.25004C12.3333 4.44259 10.0574 2.16671 7.24992 2.16671ZM0.833252 7.25004C0.833252 3.70621 3.70609 0.833374 7.24992 0.833374C10.7937 0.833374 13.6666 3.70621 13.6666 7.25004C13.6666 8.78285 13.1285 10.1909 12.2319 11.2943L14.9709 14.0282C15.2315 14.2883 15.2319 14.7104 14.9718 14.971C14.7116 15.2316 14.2895 15.232 14.0289 14.9719L11.2886 12.2365C10.1861 13.1304 8.78014 13.6667 7.24992 13.6667C3.70609 13.6667 0.833252 10.7939 0.833252 7.25004Z" fill="#9A9CA5"/>
</svg>
