<svg width="110" height="230" viewBox="0 0 110 230" fill="none" xmlns="http://www.w3.org/2000/svg">
<g opacity="0.12" clip-path="url(#clip0_1_2446)">
<path d="M115.079 0C51.4619 0 0 51.4619 0 115.079C0 178.538 51.4619 230.158 115.079 230.158C178.538 230.158 230.158 178.696 230.158 115.079C230 51.4619 178.538 0 115.079 0ZM115.079 222.739C55.5662 222.739 7.41935 174.592 7.41935 115.079C7.41935 55.5662 55.5662 7.41935 115.079 7.41935C174.592 7.41935 222.739 55.5662 222.739 115.079C222.739 174.434 174.434 222.739 115.079 222.739Z" fill="#FFCF2D"/>
<path d="M115.079 24.7828C65.3536 24.7828 24.9418 65.1946 24.9418 114.92C24.9418 164.646 65.3536 205.057 115.079 205.057C164.804 205.057 205.216 164.803 205.216 115.078C205.216 65.1946 164.804 24.7828 115.079 24.7828ZM115.079 191.324C72.9308 191.324 38.6755 157.068 38.6755 114.92C38.6755 72.7719 72.9308 38.5165 115.079 38.5165C157.227 38.5165 191.483 72.7719 191.483 114.92C191.483 157.068 157.227 191.324 115.079 191.324Z" fill="#FFCF2D"/>
</g>
<defs>
<clipPath id="clip0_1_2446">
<rect width="230" height="230" fill="white"/>
</clipPath>
</defs>
</svg>
