<svg width="112" height="170" viewBox="0 0 112 170" fill="none" xmlns="http://www.w3.org/2000/svg">
<g opacity="0.8" clip-path="url(#clip0_1_2450)">
<path d="M1.23092 80.3302C2.02299 81.1223 2.01609 82.3173 1.21483 83.1186C0.413576 83.9198 -0.781419 83.9267 -1.57348 83.1346C-2.36555 82.3426 -2.35865 81.1476 -1.55739 80.3463C-0.756133 79.5451 0.504862 79.6042 1.23092 80.3302Z" fill="#FFCF2D"/>
<path d="M13.1829 68.378C13.975 69.17 13.9681 70.365 13.1669 71.1663C12.3656 71.9675 11.1706 71.9744 10.3785 71.1824C9.58648 70.3903 9.59337 69.1953 10.3946 68.3941C11.1291 67.6596 12.4569 67.6519 13.1829 68.378Z" fill="#FFCF2D"/>
<path d="M25.1351 56.4259C25.9272 57.218 25.9203 58.413 25.119 59.2143C24.3178 60.0155 23.1228 60.0224 22.3307 59.2304C21.5386 58.4383 21.5455 57.2433 22.3468 56.442C23.148 55.6408 24.409 55.6999 25.1351 56.4259Z" fill="#FFCF2D"/>
<path d="M37.0205 44.5406C37.8125 45.3326 37.8057 46.5276 37.0044 47.3289C36.2031 48.1301 35.0081 48.137 34.2161 47.345C33.424 46.5529 33.4309 45.3579 34.2322 44.5567C35.0334 43.7554 36.2944 43.8145 37.0205 44.5406Z" fill="#FFCF2D"/>
<path d="M48.9726 32.5884C49.7647 33.3805 49.7578 34.5755 48.9565 35.3767C48.1553 36.178 46.9603 36.1849 46.1682 35.3928C45.3762 34.6008 45.383 33.4058 46.1843 32.6045C46.9856 31.8033 48.2466 31.8624 48.9726 32.5884Z" fill="#FFCF2D"/>
<path d="M60.9248 20.6363C61.7168 21.4283 61.7099 22.6233 60.9087 23.4246C60.1074 24.2258 58.9124 24.2327 58.1204 23.4407C57.3283 22.6486 57.3352 21.4536 58.1365 20.6524C58.8709 19.9179 60.1987 19.9102 60.9248 20.6363Z" fill="#FFCF2D"/>
<path d="M-0.886386 102.117C-0.0943224 102.909 -0.101222 104.104 -0.902481 104.906C-1.70374 105.707 -2.89873 105.714 -3.69079 104.922C-4.48286 104.13 -4.47596 102.935 -3.6747 102.133C-2.87344 101.332 -1.67845 101.325 -0.886386 102.117Z" fill="#FFCF2D"/>
<path d="M11.0658 90.1651C11.8578 90.9571 11.8509 92.1521 11.0497 92.9534C10.2484 93.7547 9.05342 93.7616 8.26136 92.9695C7.46929 92.1774 7.47619 90.9824 8.27745 90.1812C9.07871 89.3799 10.2737 89.373 11.0658 90.1651Z" fill="#FFCF2D"/>
<path d="M23.0179 78.2129C23.81 79.005 23.8031 80.2 23.0018 81.0013C22.2006 81.8025 21.0056 81.8094 20.2135 81.0173C19.4214 80.2253 19.4283 79.0303 20.2296 78.229C20.9641 77.4945 22.2258 77.4209 23.0179 78.2129Z" fill="#FFCF2D"/>
<path d="M34.9701 66.2609C35.7621 67.053 35.7552 68.248 34.954 69.0492C34.1527 69.8505 32.9577 69.8574 32.1657 69.0653C31.3736 68.2732 31.3805 67.0783 32.1817 66.277C32.983 65.4757 34.178 65.4688 34.9701 66.2609Z" fill="#FFCF2D"/>
<path d="M46.8554 54.3755C47.6475 55.1676 47.6406 56.3626 46.8394 57.1638C46.0381 57.9651 44.8431 57.972 44.051 57.1799C43.259 56.3879 43.2659 55.1929 44.0671 54.3916C44.8684 53.5904 46.0634 53.5835 46.8554 54.3755Z" fill="#FFCF2D"/>
<path d="M58.8075 42.4233C59.5995 43.2153 59.5926 44.4103 58.7914 45.2116C57.9901 46.0128 56.7951 46.0197 56.0031 45.2277C55.211 44.4356 55.2179 43.2406 56.0191 42.4393C56.8204 41.6381 58.0154 41.6312 58.8075 42.4233Z" fill="#FFCF2D"/>
<path d="M70.7596 30.4712C71.5517 31.2633 71.5448 32.4583 70.7435 33.2595C69.9423 34.0608 68.7473 34.0677 67.9552 33.2756C67.1631 32.4836 67.17 31.2886 67.9713 30.4873C68.7058 29.7528 69.9675 29.6792 70.7596 30.4712Z" fill="#FFCF2D"/>
<path d="M5.53159 36.8223C6.32366 37.6144 6.31676 38.8094 5.5155 39.6106C4.71423 40.4119 3.51924 40.4188 2.72718 39.6267C1.93511 38.8346 1.94201 37.6397 2.74327 36.8384C3.54453 36.0371 4.73953 36.0302 5.53159 36.8223Z" fill="#FFCF2D"/>
<path d="M17.417 24.937C18.209 25.7291 18.2021 26.9241 17.4009 27.7254C16.5996 28.5266 15.4046 28.5335 14.6126 27.7415C13.8205 26.9494 13.8274 25.7544 14.6286 24.9531C15.4299 24.1519 16.6249 24.145 17.417 24.937Z" fill="#FFCF2D"/>
<path d="M29.3691 12.9849C30.1612 13.777 30.1543 14.972 29.353 15.7732C28.5518 16.5745 27.3568 16.5814 26.5647 15.7893C25.7726 14.9972 25.7795 13.8023 26.5808 13.001C27.3821 12.1997 28.577 12.1928 29.3691 12.9849Z" fill="#FFCF2D"/>
<path d="M41.3212 1.03289C42.1133 1.82495 42.1064 3.01993 41.3052 3.82119C40.5039 4.62245 39.3089 4.62935 38.5168 3.83728C37.7248 3.04522 37.7317 1.85022 38.5329 1.04897C39.2674 0.314481 40.5292 0.240821 41.3212 1.03289Z" fill="#FFCF2D"/>
<path d="M3.41415 58.6092C4.20621 59.4012 4.19932 60.5962 3.39806 61.3975C2.5968 62.1987 1.40181 62.2056 0.609746 61.4136C-0.182318 60.6215 -0.175424 59.4265 0.625835 58.6253C1.36032 57.8908 2.62209 57.8171 3.41415 58.6092Z" fill="#FFCF2D"/>
<path d="M15.3663 46.6571C16.1584 47.4492 16.1515 48.6442 15.3502 49.4455C14.549 50.2467 13.354 50.2536 12.5619 49.4616C11.7698 48.6695 11.7767 47.4745 12.578 46.6732C13.3793 45.872 14.5742 45.8651 15.3663 46.6571Z" fill="#FFCF2D"/>
<path d="M27.2517 34.7718C28.0437 35.5638 28.0369 36.7588 27.2356 37.5601C26.4343 38.3613 25.2393 38.3682 24.4473 37.5762C23.6552 36.7841 23.6621 35.5891 24.4634 34.7879C25.2646 33.9866 26.4596 33.9797 27.2517 34.7718Z" fill="#FFCF2D"/>
<path d="M39.2038 22.8196C39.9959 23.6117 39.989 24.8067 39.1877 25.6079C38.3865 26.4092 37.1915 26.4161 36.3994 25.624C35.6074 24.832 35.6142 23.637 36.4155 22.8357C37.2168 22.0344 38.4118 22.0275 39.2038 22.8196Z" fill="#FFCF2D"/>
<path d="M51.156 10.8675C51.948 11.6595 51.9411 12.8545 51.1399 13.6558C50.3386 14.457 49.1436 14.4639 48.3516 13.6719C47.5595 12.8798 47.5664 11.6848 48.3677 10.8836C49.1021 10.1491 50.3639 10.0754 51.156 10.8675Z" fill="#FFCF2D"/>
<path d="M8.88254 111.886C9.6746 112.678 9.6677 113.873 8.86644 114.674C8.06518 115.476 6.87019 115.483 6.07813 114.691C5.28606 113.898 5.29296 112.704 6.09422 111.902C6.89548 111.101 8.15648 111.16 8.88254 111.886Z" fill="#FFCF2D"/>
<path d="M20.8346 99.9339C21.6266 100.726 21.6197 101.921 20.8185 102.722C20.0172 103.523 18.8222 103.53 18.0302 102.738C17.2381 101.946 17.245 100.751 18.0462 99.95C18.8475 99.1487 20.1085 99.2078 20.8346 99.9339Z" fill="#FFCF2D"/>
<path d="M32.7867 87.9819C33.5788 88.7739 33.5719 89.9689 32.7706 90.7702C31.9694 91.5714 30.7744 91.5783 29.9823 90.7863C29.1902 89.9942 29.1971 88.7992 29.9984 87.9979C30.7329 87.2635 32.0606 87.2558 32.7867 87.9819Z" fill="#FFCF2D"/>
<path d="M44.7389 76.0297C45.5309 76.8218 45.524 78.0168 44.7228 78.818C43.9215 79.6193 42.7265 79.6262 41.9345 78.8341C41.1424 78.042 41.1493 76.8471 41.9505 76.0458C42.7518 75.2445 44.0128 75.3036 44.7389 76.0297Z" fill="#FFCF2D"/>
<path d="M56.6242 64.1443C57.4163 64.9364 57.4094 66.1314 56.6081 66.9326C55.8069 67.7339 54.6119 67.7408 53.8198 66.9487C53.0278 66.1567 53.0347 64.9617 53.8359 64.1604C54.6372 63.3592 55.8982 63.4183 56.6242 64.1443Z" fill="#FFCF2D"/>
<path d="M68.5764 52.1922C69.3685 52.9842 69.3615 54.1792 68.5603 54.9805C67.759 55.7817 66.564 55.7886 65.772 54.9966C64.9799 54.2045 64.9868 53.0095 65.7881 52.2083C66.5893 51.407 67.8503 51.4661 68.5764 52.1922Z" fill="#FFCF2D"/>
<path d="M80.5285 40.24C81.3206 41.0321 81.3137 42.2271 80.5124 43.0283C79.7112 43.8296 78.5162 43.8365 77.7241 43.0444C76.9321 42.2524 76.939 41.0574 77.7402 40.2561C78.4747 39.5216 79.8025 39.514 80.5285 40.24Z" fill="#FFCF2D"/>
<path d="M6.83175 133.606C7.62381 134.398 7.61692 135.593 6.81566 136.394C6.0144 137.196 4.81941 137.202 4.02734 136.41C3.23528 135.618 3.24218 134.423 4.04344 133.622C4.77793 132.888 6.03969 132.814 6.83175 133.606Z" fill="#FFCF2D"/>
<path d="M18.7171 121.721C19.5092 122.513 19.5023 123.708 18.701 124.509C17.8998 125.31 16.7048 125.317 15.9127 124.525C15.1207 123.733 15.1276 122.538 15.9288 121.737C16.7301 120.936 17.9251 120.929 18.7171 121.721Z" fill="#FFCF2D"/>
<path d="M30.6532 112.557C31.4276 111.782 31.4348 110.534 30.6693 109.769C29.9037 109.003 28.6554 109.01 27.881 109.785C27.1065 110.559 27.0993 111.807 27.8649 112.573C28.6304 113.339 29.8788 113.331 30.6532 112.557Z" fill="#FFCF2D"/>
<path d="M42.6213 97.8164C43.4134 98.6085 43.4065 99.8035 42.6052 100.605C41.8039 101.406 40.609 101.413 39.8169 100.621C39.0248 99.8288 39.0317 98.6338 39.833 97.8325C40.5675 97.0981 41.8292 97.0244 42.6213 97.8164Z" fill="#FFCF2D"/>
<path d="M54.5736 85.8643C55.3656 86.6564 55.3587 87.8513 54.5575 88.6526C53.7562 89.4539 52.5612 89.4608 51.7692 88.6687C50.9771 87.8766 50.984 86.6816 51.7853 85.8804C52.5865 85.0791 53.7815 85.0722 54.5736 85.8643Z" fill="#FFCF2D"/>
<path d="M66.459 73.9789C67.251 74.771 67.2441 75.966 66.4429 76.7672C65.6416 77.5685 64.4466 77.5754 63.6545 76.7833C62.8625 75.9913 62.8694 74.7963 63.6706 73.995C64.4719 73.1938 65.6669 73.1869 66.459 73.9789Z" fill="#FFCF2D"/>
<path d="M78.395 64.8152C79.1694 64.0408 79.1766 62.7924 78.4111 62.0269C77.6456 61.2614 76.3972 61.2686 75.6228 62.043C74.8484 62.8174 74.8412 64.0658 75.6067 64.8313C76.3722 65.5968 77.6206 65.5896 78.395 64.8152Z" fill="#FFCF2D"/>
<path d="M90.3631 50.0746C91.1552 50.8667 91.1483 52.0617 90.347 52.8629C89.5458 53.6642 88.3508 53.6711 87.5587 52.879C86.7667 52.087 86.7736 50.892 87.5748 50.0907C88.3093 49.3562 89.5711 49.2826 90.3631 50.0746Z" fill="#FFCF2D"/>
<path d="M4.71481 155.393C5.50688 156.185 5.49998 157.38 4.69872 158.182C3.89746 158.983 2.70247 158.99 1.91041 158.198C1.11834 157.406 1.12524 156.211 1.9265 155.409C2.72776 154.608 3.92275 154.601 4.71481 155.393Z" fill="#FFCF2D"/>
<path d="M16.667 143.441C17.459 144.233 17.4521 145.428 16.6509 146.23C15.8496 147.031 14.6546 147.038 13.8626 146.246C13.0705 145.454 13.0774 144.259 13.8786 143.457C14.6131 142.723 15.8749 142.649 16.667 143.441Z" fill="#FFCF2D"/>
<path d="M28.5522 131.556C29.3443 132.348 29.3374 133.543 28.5361 134.344C27.7349 135.145 26.5399 135.152 25.7478 134.36C24.9557 133.568 24.9626 132.373 25.7639 131.572C26.5652 130.771 27.7602 130.764 28.5522 131.556Z" fill="#FFCF2D"/>
<path d="M40.5044 119.604C41.2964 120.396 41.2895 121.591 40.4883 122.392C39.687 123.193 38.492 123.2 37.7 122.408C36.9079 121.616 36.9148 120.421 37.716 119.62C38.5173 118.819 39.7123 118.812 40.5044 119.604Z" fill="#FFCF2D"/>
<path d="M52.4565 107.652C53.2486 108.444 53.2417 109.639 52.4404 110.44C51.6392 111.241 50.4442 111.248 49.6521 110.456C48.86 109.664 48.8669 108.469 49.6682 107.668C50.4027 106.933 51.6644 106.859 52.4565 107.652Z" fill="#FFCF2D"/>
<path d="M64.4085 95.6994C65.2006 96.4914 65.1937 97.6864 64.3924 98.4877C63.5912 99.289 62.3962 99.2959 61.6041 98.5038C60.8121 97.7117 60.819 96.5167 61.6202 95.7155C62.4215 94.9142 63.6165 94.9073 64.4085 95.6994Z" fill="#FFCF2D"/>
<path d="M76.2939 83.814C77.086 84.6061 77.0791 85.801 76.2778 86.6023C75.4766 87.4036 74.2816 87.4105 73.4895 86.6184C72.6974 85.8263 72.7043 84.6314 73.5056 83.8301C74.3069 83.0288 75.5019 83.0219 76.2939 83.814Z" fill="#FFCF2D"/>
<path d="M88.2461 71.862C89.0381 72.654 89.0312 73.849 88.23 74.6503C87.4287 75.4515 86.2337 75.4584 85.4417 74.6664C84.6496 73.8743 84.6565 72.6793 85.4577 71.8781C86.259 71.0768 87.454 71.0699 88.2461 71.862Z" fill="#FFCF2D"/>
<path d="M100.198 59.9098C100.99 60.7019 100.983 61.8969 100.182 62.6981C99.3809 63.4994 98.1859 63.5063 97.3938 62.7142C96.6017 61.9222 96.6086 60.7272 97.4099 59.9259C98.1444 59.1914 99.4061 59.1178 100.198 59.9098Z" fill="#FFCF2D"/>
<path d="M14.4832 165.162C15.2753 165.954 15.2684 167.149 14.4671 167.95C13.6659 168.751 12.4709 168.758 11.6788 167.966C10.8868 167.174 10.8937 165.979 11.6949 165.178C12.4962 164.377 13.7572 164.436 14.4832 165.162Z" fill="#FFCF2D"/>
<path d="M26.4353 153.21C27.2273 154.002 27.2204 155.197 26.4192 155.998C25.6179 156.799 24.4229 156.806 23.6309 156.014C22.8388 155.222 22.8457 154.027 23.647 153.226C24.3814 152.491 25.7092 152.483 26.4353 153.21Z" fill="#FFCF2D"/>
<path d="M38.3206 141.324C39.1127 142.116 39.1058 143.311 38.3045 144.113C37.5033 144.914 36.3083 144.921 35.5162 144.129C34.7242 143.337 34.7311 142.142 35.5323 141.34C36.3336 140.539 37.5946 140.598 38.3206 141.324Z" fill="#FFCF2D"/>
<path d="M50.2728 129.372C51.0649 130.164 51.058 131.359 50.2567 132.16C49.4554 132.962 48.2604 132.969 47.4684 132.177C46.6763 131.384 46.6832 130.189 47.4845 129.388C48.2857 128.587 49.5467 128.646 50.2728 129.372Z" fill="#FFCF2D"/>
<path d="M62.2249 117.42C63.017 118.212 63.0101 119.407 62.2088 120.208C61.4076 121.01 60.2126 121.017 59.4205 120.224C58.6285 119.432 58.6354 118.237 59.4366 117.436C60.1711 116.702 61.4989 116.694 62.2249 117.42Z" fill="#FFCF2D"/>
<path d="M74.1771 105.468C74.9691 106.26 74.9623 107.455 74.161 108.256C73.3597 109.057 72.1647 109.064 71.3727 108.272C70.5806 107.48 70.5875 106.285 71.3888 105.484C72.19 104.683 73.451 104.742 74.1771 105.468Z" fill="#FFCF2D"/>
<path d="M86.0625 93.5826C86.8545 94.3746 86.8476 95.5696 86.0464 96.3709C85.2451 97.1721 84.0501 97.179 83.2581 96.387C82.466 95.5949 82.4729 94.3999 83.2742 93.5986C84.0754 92.7974 85.3364 92.8565 86.0625 93.5826Z" fill="#FFCF2D"/>
<path d="M98.0146 81.6304C98.8067 82.4225 98.7998 83.6175 97.9985 84.4187C97.1973 85.22 96.0023 85.2269 95.2102 84.4348C94.4181 83.6428 94.425 82.4478 95.2263 81.6465C96.0276 80.8452 97.2886 80.9043 98.0146 81.6304Z" fill="#FFCF2D"/>
<path d="M109.967 69.6781C110.759 70.4702 110.752 71.6652 109.951 72.4664C109.149 73.2677 107.954 73.2746 107.162 72.4825C106.37 71.6905 106.377 70.4955 107.178 69.6942C107.913 68.9597 109.241 68.9521 109.967 69.6781Z" fill="#FFCF2D"/>
</g>
<defs>
<clipPath id="clip0_1_2450">
<rect width="139" height="101" fill="white" transform="translate(-58.3528 97.9346) rotate(-45)"/>
</clipPath>
</defs>
</svg>
