<svg width="16" height="14" viewBox="0 0 16 14" fill="none" xmlns="http://www.w3.org/2000/svg">
<path fill-rule="evenodd" clip-rule="evenodd" d="M7.99956 12.2719C4.93352 10.5256 3.22348 8.78992 2.39657 7.28398C1.55023 5.74265 1.62407 4.44446 2.09371 3.5231C3.05902 1.62928 5.80409 1.02369 7.4766 3.13902L7.99952 3.80038L8.52248 3.13905C10.1953 1.02364 12.9405 1.62932 13.9058 3.5231C14.3754 4.44445 14.4492 5.74263 13.6028 7.28396C12.7759 8.78991 11.0657 10.5256 7.99956 12.2719ZM7.99958 1.73763C5.64678 -0.498115 2.17585 0.425912 0.905793 2.9176C0.208765 4.28507 0.199244 6.05249 1.22784 7.92572C2.2473 9.78234 4.27991 11.7421 7.67706 13.6197L7.99955 13.798L8.32204 13.6197C11.7193 11.7421 13.752 9.78236 14.7716 7.92574C15.8002 6.05251 15.7907 4.28508 15.0937 2.9176C13.8236 0.425864 10.3526 -0.498082 7.99958 1.73763Z" fill="#FF3F3A"/>
</svg>
